<svg width="372" height="73" viewBox="0 0 372 73" fill="none" xmlns="http://www.w3.org/2000/svg">
<path d="M18.752 57.672C18.7947 58.8667 18.7733 59.9547 18.688 60.936C16.896 61.1493 15.3173 61.0853 13.952 60.744C12.6293 60.4027 11.4987 59.912 10.56 59.272C9.664 58.5893 8.98133 57.8 8.512 56.904C8.04267 56.008 7.82933 55.0693 7.872 54.088C8.04267 52.8933 8.10667 51.592 8.064 50.184C8.064 48.776 7.82933 47.4747 7.36 46.28C6.93333 45.0427 6.22933 44.04 5.248 43.272C4.30933 42.4613 3.008 42.0987 1.344 42.184C1.088 42.184 0.917333 42.1627 0.832 42.12C0.618667 41.096 0.533333 40.0507 0.576 38.984C0.661333 37.8747 0.789333 36.8293 0.96 35.848C2.624 36.0187 3.94667 35.8053 4.928 35.208C5.952 34.568 6.72 33.7147 7.232 32.648C7.744 31.5813 8.04267 30.3867 8.128 29.064C8.21333 27.6987 8.192 26.3547 8.064 25.032C7.89333 24.1787 7.85067 23.3467 7.936 22.536C8.064 21.6827 8.32 20.936 8.704 20.296C9.088 19.6133 9.57867 19.0587 10.176 18.632C10.7733 18.1627 11.4773 17.864 12.288 17.736C13.5253 17.608 14.6133 17.544 15.552 17.544C16.4907 17.5013 17.472 17.5227 18.496 17.608C18.6667 18.632 18.7307 19.656 18.688 20.68C18.688 21.6613 18.6453 22.6213 18.56 23.56C17.8773 23.7733 17.1947 24.0507 16.512 24.392C15.8293 24.7333 15.4027 25.3093 15.232 26.12C15.0613 27.3573 15.0187 28.6373 15.104 29.96C15.1893 31.2827 15.1893 32.5413 15.104 33.736C15.0613 34.9307 14.8053 36.0187 14.336 37C13.8667 37.9387 12.992 38.6427 11.712 39.112C13.12 39.88 14.0587 41.0107 14.528 42.504C14.9973 43.9547 15.1893 45.576 15.104 47.368C15.0613 48.0933 15.0613 48.8613 15.104 49.672C15.1467 50.44 15.2747 51.1653 15.488 51.848C15.744 52.488 16.128 53.064 16.64 53.576C17.152 54.0453 17.856 54.3227 18.752 54.408C18.752 55.3893 18.752 56.4773 18.752 57.672ZM39.5235 60.744C38.2008 61.0853 36.6435 61.1493 34.8515 60.936C34.7662 59.9547 34.7235 58.8667 34.7235 57.672C34.7662 56.4773 34.7875 55.3893 34.7875 54.408C35.6835 54.3227 36.3875 54.0453 36.8995 53.576C37.4115 53.064 37.7742 52.488 37.9875 51.848C38.2435 51.1653 38.3928 50.44 38.4355 49.672C38.4782 48.8613 38.4782 48.0933 38.4355 47.368C38.3502 45.576 38.5422 43.9547 39.0115 42.504C39.4808 41.0107 40.4195 39.88 41.8275 39.112C40.5475 38.6427 39.6728 37.9387 39.2035 37C38.7342 36.0187 38.4568 34.9307 38.3715 33.736C38.3288 32.5413 38.3502 31.2827 38.4355 29.96C38.5208 28.6373 38.4782 27.3573 38.3075 26.12C38.1368 25.3093 37.7102 24.7333 37.0275 24.392C36.3448 24.0507 35.6622 23.7733 34.9795 23.56C34.8942 22.6213 34.8302 21.6613 34.7875 20.68C34.7875 19.656 34.8728 18.632 35.0435 17.608C36.0675 17.5227 37.0488 17.5013 37.9875 17.544C38.9262 17.544 40.0142 17.608 41.2515 17.736C42.0622 17.864 42.7662 18.1627 43.3635 18.632C43.9608 19.0587 44.4515 19.6133 44.8355 20.296C45.2195 20.936 45.4542 21.6827 45.5395 22.536C45.6675 23.3467 45.6462 24.1787 45.4755 25.032C45.3475 26.3547 45.3262 27.6987 45.4115 29.064C45.4968 30.3867 45.7955 31.5813 46.3075 32.648C46.8195 33.7147 47.5662 34.568 48.5475 35.208C49.5715 35.8053 50.9155 36.0187 52.5795 35.848C52.7502 36.8293 52.8568 37.8747 52.8995 38.984C52.9848 40.0507 52.9208 41.096 52.7075 42.12C52.6222 42.1627 52.4515 42.184 52.1955 42.184C50.5315 42.0987 49.2088 42.4613 48.2275 43.272C47.2888 44.04 46.5848 45.0427 46.1155 46.28C45.6888 47.4747 45.4542 48.776 45.4115 50.184C45.4115 51.592 45.4968 52.8933 45.6675 54.088C45.7102 55.0693 45.4968 56.008 45.0275 56.904C44.5582 57.8 43.8542 58.5893 42.9155 59.272C42.0195 59.912 40.8888 60.4027 39.5235 60.744Z" fill="#F35034"/>
<path d="M82.44 27.456V41.932C82.44 42.7533 82.3 43.5 82.02 44.172C81.74 44.844 81.3387 45.4133 80.816 45.88C80.312 46.3467 79.7053 46.7107 78.996 46.972C78.2867 47.2147 77.512 47.336 76.672 47.336C75.1787 47.336 73.9467 46.9533 72.976 46.188C72.0053 45.404 71.3707 44.312 71.072 42.912L73.312 42.436C73.4053 42.828 73.5267 43.2013 73.676 43.556C73.844 43.892 74.0587 44.1907 74.32 44.452C74.6 44.6947 74.936 44.8907 75.328 45.04C75.72 45.1893 76.1867 45.264 76.728 45.264C77.792 45.264 78.6133 44.9653 79.192 44.368C79.7893 43.752 80.088 42.8 80.088 41.512V29.5H73.032V27.456H82.44ZM90.3531 30.452H90.1571V47H88.0291V27.456H91.3611L98.0251 43.836H98.2211V27.456H100.349V47H97.0171L90.3531 30.452ZM121.887 47L120.347 27.456H122.447L123.259 38.656L123.679 44.564H123.903L126.479 32.552H129.111L131.687 44.564H131.911L132.331 38.656L133.143 27.456H135.187L133.647 47H130.259L127.879 35.324H127.655L125.275 47H121.887ZM144.808 47.336C143.763 47.336 142.82 47.1587 141.98 46.804C141.159 46.4493 140.45 45.9453 139.852 45.292C139.274 44.62 138.826 43.8267 138.508 42.912C138.191 41.9787 138.032 40.9427 138.032 39.804C138.032 38.6467 138.191 37.6013 138.508 36.668C138.844 35.7347 139.302 34.9413 139.88 34.288C140.459 33.616 141.15 33.1027 141.952 32.748C142.774 32.3933 143.679 32.216 144.668 32.216C145.639 32.216 146.516 32.3933 147.3 32.748C148.103 33.1027 148.784 33.5973 149.344 34.232C149.904 34.848 150.334 35.5853 150.632 36.444C150.931 37.3027 151.08 38.2453 151.08 39.272V40.336H140.384V41.008C140.384 41.6427 140.487 42.2307 140.692 42.772C140.898 43.3133 141.187 43.78 141.56 44.172C141.952 44.564 142.419 44.872 142.96 45.096C143.52 45.3013 144.136 45.404 144.808 45.404C145.779 45.404 146.619 45.18 147.328 44.732C148.038 44.284 148.579 43.668 148.952 42.884L150.604 44.004C150.175 44.9747 149.456 45.7773 148.448 46.412C147.459 47.028 146.246 47.336 144.808 47.336ZM144.668 34.064C144.052 34.064 143.483 34.176 142.96 34.4C142.438 34.624 141.98 34.932 141.588 35.324C141.215 35.716 140.916 36.1827 140.692 36.724C140.487 37.2467 140.384 37.8253 140.384 38.46V38.656H148.672V38.348C148.672 37.7133 148.57 37.1347 148.364 36.612C148.178 36.0893 147.907 35.6413 147.552 35.268C147.216 34.876 146.796 34.5773 146.292 34.372C145.807 34.1667 145.266 34.064 144.668 34.064ZM155.605 26.28H157.845V34.904H157.957C158.891 33.112 160.375 32.216 162.409 32.216C164.183 32.216 165.564 32.8787 166.553 34.204C167.561 35.5293 168.065 37.3867 168.065 39.776C168.065 42.1653 167.561 44.0227 166.553 45.348C165.564 46.6733 164.183 47.336 162.409 47.336C160.375 47.336 158.891 46.44 157.957 44.648H157.845V47H155.605V26.28ZM161.541 45.348C162.848 45.348 163.856 44.956 164.565 44.172C165.293 43.3693 165.657 42.3147 165.657 41.008V38.544C165.657 37.2373 165.293 36.192 164.565 35.408C163.856 34.6053 162.848 34.204 161.541 34.204C161.037 34.204 160.561 34.2693 160.113 34.4C159.665 34.5307 159.273 34.7267 158.937 34.988C158.601 35.2307 158.331 35.5387 158.125 35.912C157.939 36.2667 157.845 36.6867 157.845 37.172V42.38C157.845 42.8653 157.939 43.2947 158.125 43.668C158.331 44.0227 158.601 44.3307 158.937 44.592C159.273 44.8347 159.665 45.0213 160.113 45.152C160.561 45.2827 161.037 45.348 161.541 45.348ZM189.183 27.456H194.643C197.033 27.456 198.815 28.2773 199.991 29.92C201.167 31.5627 201.755 33.9987 201.755 37.228C201.755 40.4573 201.167 42.8933 199.991 44.536C198.815 46.1787 197.033 47 194.643 47H189.183V27.456ZM194.531 44.956C196.099 44.956 197.275 44.4147 198.059 43.332C198.862 42.2493 199.263 40.7187 199.263 38.74V35.716C199.263 33.7373 198.862 32.2067 198.059 31.124C197.275 30.0413 196.099 29.5 194.531 29.5H191.535V44.956H194.531ZM211.965 47.336C210.919 47.336 209.977 47.1587 209.137 46.804C208.315 46.4493 207.606 45.9453 207.008 45.292C206.43 44.62 205.982 43.8267 205.665 42.912C205.347 41.9787 205.189 40.9427 205.189 39.804C205.189 38.6467 205.347 37.6013 205.665 36.668C206.001 35.7347 206.458 34.9413 207.037 34.288C207.615 33.616 208.306 33.1027 209.109 32.748C209.93 32.3933 210.835 32.216 211.825 32.216C212.795 32.216 213.673 32.3933 214.457 32.748C215.259 33.1027 215.941 33.5973 216.501 34.232C217.061 34.848 217.49 35.5853 217.789 36.444C218.087 37.3027 218.237 38.2453 218.237 39.272V40.336H207.541V41.008C207.541 41.6427 207.643 42.2307 207.849 42.772C208.054 43.3133 208.343 43.78 208.717 44.172C209.109 44.564 209.575 44.872 210.117 45.096C210.677 45.3013 211.293 45.404 211.965 45.404C212.935 45.404 213.775 45.18 214.485 44.732C215.194 44.284 215.735 43.668 216.109 42.884L217.761 44.004C217.331 44.9747 216.613 45.7773 215.605 46.412C214.615 47.028 213.402 47.336 211.965 47.336ZM211.825 34.064C211.209 34.064 210.639 34.176 210.117 34.4C209.594 34.624 209.137 34.932 208.745 35.324C208.371 35.716 208.073 36.1827 207.849 36.724C207.643 37.2467 207.541 37.8253 207.541 38.46V38.656H215.829V38.348C215.829 37.7133 215.726 37.1347 215.521 36.612C215.334 36.0893 215.063 35.6413 214.709 35.268C214.373 34.876 213.953 34.5773 213.449 34.372C212.963 34.1667 212.422 34.064 211.825 34.064ZM227.074 47L221.894 32.552H224.162L226.234 38.6L228.474 45.124H228.586L230.826 38.6L232.898 32.552H235.11L229.93 47H227.074ZM245.543 47.336C244.497 47.336 243.555 47.1587 242.715 46.804C241.893 46.4493 241.184 45.9453 240.587 45.292C240.008 44.62 239.56 43.8267 239.243 42.912C238.925 41.9787 238.767 40.9427 238.767 39.804C238.767 38.6467 238.925 37.6013 239.243 36.668C239.579 35.7347 240.036 34.9413 240.615 34.288C241.193 33.616 241.884 33.1027 242.687 32.748C243.508 32.3933 244.413 32.216 245.403 32.216C246.373 32.216 247.251 32.3933 248.035 32.748C248.837 33.1027 249.519 33.5973 250.079 34.232C250.639 34.848 251.068 35.5853 251.367 36.444C251.665 37.3027 251.815 38.2453 251.815 39.272V40.336H241.119V41.008C241.119 41.6427 241.221 42.2307 241.427 42.772C241.632 43.3133 241.921 43.78 242.295 44.172C242.687 44.564 243.153 44.872 243.695 45.096C244.255 45.3013 244.871 45.404 245.543 45.404C246.513 45.404 247.353 45.18 248.063 44.732C248.772 44.284 249.313 43.668 249.687 42.884L251.339 44.004C250.909 44.9747 250.191 45.7773 249.183 46.412C248.193 47.028 246.98 47.336 245.543 47.336ZM245.403 34.064C244.787 34.064 244.217 34.176 243.695 34.4C243.172 34.624 242.715 34.932 242.323 35.324C241.949 35.716 241.651 36.1827 241.427 36.724C241.221 37.2467 241.119 37.8253 241.119 38.46V38.656H249.407V38.348C249.407 37.7133 249.304 37.1347 249.099 36.612C248.912 36.0893 248.641 35.6413 248.287 35.268C247.951 34.876 247.531 34.5773 247.027 34.372C246.541 34.1667 246 34.064 245.403 34.064ZM255.92 45.096H260.96V28.184H255.92V26.28H263.2V45.096H268.24V47H255.92V45.096ZM278.869 47.336C277.861 47.336 276.946 47.1587 276.125 46.804C275.322 46.4493 274.631 45.9453 274.053 45.292C273.493 44.62 273.063 43.8267 272.765 42.912C272.466 41.9787 272.317 40.9333 272.317 39.776C272.317 38.6373 272.466 37.6013 272.765 36.668C273.063 35.7347 273.493 34.9413 274.053 34.288C274.631 33.616 275.322 33.1027 276.125 32.748C276.946 32.3933 277.861 32.216 278.869 32.216C279.877 32.216 280.782 32.3933 281.585 32.748C282.406 33.1027 283.097 33.616 283.657 34.288C284.235 34.9413 284.674 35.7347 284.973 36.668C285.271 37.6013 285.421 38.6373 285.421 39.776C285.421 40.9333 285.271 41.9787 284.973 42.912C284.674 43.8267 284.235 44.62 283.657 45.292C283.097 45.9453 282.406 46.4493 281.585 46.804C280.782 47.1587 279.877 47.336 278.869 47.336ZM278.869 45.404C280.119 45.404 281.127 45.0307 281.893 44.284C282.658 43.5373 283.041 42.38 283.041 40.812V38.74C283.041 37.172 282.658 36.0147 281.893 35.268C281.127 34.5213 280.119 34.148 278.869 34.148C277.618 34.148 276.61 34.5213 275.845 35.268C275.079 36.0147 274.697 37.172 274.697 38.74V40.812C274.697 42.38 275.079 43.5373 275.845 44.284C276.61 45.0307 277.618 45.404 278.869 45.404ZM289.918 32.552H292.158V34.904H292.27C293.203 33.112 294.687 32.216 296.722 32.216C298.495 32.216 299.876 32.8787 300.866 34.204C301.874 35.5293 302.378 37.3867 302.378 39.776C302.378 42.1653 301.874 44.0227 300.866 45.348C299.876 46.6733 298.495 47.336 296.722 47.336C294.687 47.336 293.203 46.44 292.27 44.648H292.158V52.6H289.918V32.552ZM295.854 45.348C297.16 45.348 298.168 44.956 298.878 44.172C299.606 43.3693 299.97 42.3147 299.97 41.008V38.544C299.97 37.2373 299.606 36.192 298.878 35.408C298.168 34.6053 297.16 34.204 295.854 34.204C295.35 34.204 294.874 34.2693 294.426 34.4C293.978 34.5307 293.586 34.7267 293.25 34.988C292.914 35.2307 292.643 35.5387 292.438 35.912C292.251 36.2667 292.158 36.6867 292.158 37.172V42.38C292.158 42.8653 292.251 43.2947 292.438 43.668C292.643 44.0227 292.914 44.3307 293.25 44.592C293.586 44.8347 293.978 45.0213 294.426 45.152C294.874 45.2827 295.35 45.348 295.854 45.348ZM305.559 47V32.552H307.631V34.232H307.743C307.967 33.672 308.284 33.196 308.695 32.804C309.106 32.412 309.712 32.216 310.515 32.216C311.355 32.216 311.98 32.4307 312.391 32.86C312.802 33.2707 313.054 33.812 313.147 34.484H313.231C313.492 33.8307 313.866 33.2893 314.351 32.86C314.836 32.4307 315.508 32.216 316.367 32.216C317.543 32.216 318.327 32.6267 318.719 33.448C319.13 34.2693 319.335 35.4453 319.335 36.976V47H317.263V37.34C317.263 36.108 317.132 35.2587 316.871 34.792C316.628 34.3067 316.171 34.064 315.499 34.064C314.902 34.064 314.416 34.26 314.043 34.652C313.67 35.0253 313.483 35.604 313.483 36.388V47H311.411V37.34C311.411 36.108 311.28 35.2587 311.019 34.792C310.776 34.3067 310.328 34.064 309.675 34.064C309.078 34.064 308.583 34.26 308.191 34.652C307.818 35.0253 307.631 35.604 307.631 36.388V47H305.559ZM329.488 47.336C328.443 47.336 327.5 47.1587 326.66 46.804C325.839 46.4493 325.129 45.9453 324.532 45.292C323.953 44.62 323.505 43.8267 323.188 42.912C322.871 41.9787 322.712 40.9427 322.712 39.804C322.712 38.6467 322.871 37.6013 323.188 36.668C323.524 35.7347 323.981 34.9413 324.56 34.288C325.139 33.616 325.829 33.1027 326.632 32.748C327.453 32.3933 328.359 32.216 329.348 32.216C330.319 32.216 331.196 32.3933 331.98 32.748C332.783 33.1027 333.464 33.5973 334.024 34.232C334.584 34.848 335.013 35.5853 335.312 36.444C335.611 37.3027 335.76 38.2453 335.76 39.272V40.336H325.064V41.008C325.064 41.6427 325.167 42.2307 325.372 42.772C325.577 43.3133 325.867 43.78 326.24 44.172C326.632 44.564 327.099 44.872 327.64 45.096C328.2 45.3013 328.816 45.404 329.488 45.404C330.459 45.404 331.299 45.18 332.008 44.732C332.717 44.284 333.259 43.668 333.632 42.884L335.284 44.004C334.855 44.9747 334.136 45.7773 333.128 46.412C332.139 47.028 330.925 47.336 329.488 47.336ZM329.348 34.064C328.732 34.064 328.163 34.176 327.64 34.4C327.117 34.624 326.66 34.932 326.268 35.324C325.895 35.716 325.596 36.1827 325.372 36.724C325.167 37.2467 325.064 37.8253 325.064 38.46V38.656H333.352V38.348C333.352 37.7133 333.249 37.1347 333.044 36.612C332.857 36.0893 332.587 35.6413 332.232 35.268C331.896 34.876 331.476 34.5773 330.972 34.372C330.487 34.1667 329.945 34.064 329.348 34.064ZM340.369 47V32.552H342.609V34.904H342.721C342.87 34.5493 343.057 34.2133 343.281 33.896C343.505 33.56 343.776 33.2707 344.093 33.028C344.429 32.7853 344.821 32.5893 345.269 32.44C345.717 32.2907 346.24 32.216 346.837 32.216C348.349 32.216 349.562 32.7013 350.477 33.672C351.392 34.624 351.849 35.9773 351.849 37.732V47H349.609V38.124C349.609 36.7987 349.32 35.8187 348.741 35.184C348.162 34.5307 347.313 34.204 346.193 34.204C345.745 34.204 345.306 34.26 344.877 34.372C344.448 34.484 344.065 34.652 343.729 34.876C343.393 35.1 343.122 35.3893 342.917 35.744C342.712 36.0987 342.609 36.5093 342.609 36.976V47H340.369ZM363.514 47C362.413 47 361.601 46.692 361.078 46.076C360.574 45.46 360.322 44.6667 360.322 43.696V34.456H355.506V32.552H359.09C359.575 32.552 359.911 32.4587 360.098 32.272C360.303 32.0667 360.406 31.7213 360.406 31.236V27.456H362.562V32.552H369.142V34.456H362.562V45.096H369.142V47H363.514Z" fill="#F35034"/>
</svg>
