<svg width="92" height="76" viewBox="0 0 92 76" fill="none" xmlns="http://www.w3.org/2000/svg">
<path d="M18.752 57.672C18.7947 58.8667 18.7733 59.9547 18.688 60.936C16.896 61.1493 15.3173 61.0853 13.952 60.744C12.6293 60.4027 11.4987 59.912 10.56 59.272C9.664 58.5893 8.98133 57.8 8.512 56.904C8.04267 56.008 7.82933 55.0693 7.872 54.088C8.04267 52.8933 8.10667 51.592 8.064 50.184C8.064 48.776 7.82933 47.4747 7.36 46.28C6.93333 45.0427 6.22933 44.04 5.248 43.272C4.30933 42.4613 3.008 42.0987 1.344 42.184C1.088 42.184 0.917333 42.1627 0.832 42.12C0.618667 41.096 0.533333 40.0507 0.576 38.984C0.661333 37.8747 0.789333 36.8293 0.96 35.848C2.624 36.0187 3.94667 35.8053 4.928 35.208C5.952 34.568 6.72 33.7147 7.232 32.648C7.744 31.5813 8.04267 30.3867 8.128 29.064C8.21333 27.6987 8.192 26.3547 8.064 25.032C7.89333 24.1787 7.85067 23.3467 7.936 22.536C8.064 21.6827 8.32 20.936 8.704 20.296C9.088 19.6133 9.57867 19.0587 10.176 18.632C10.7733 18.1627 11.4773 17.864 12.288 17.736C13.5253 17.608 14.6133 17.544 15.552 17.544C16.4907 17.5013 17.472 17.5227 18.496 17.608C18.6667 18.632 18.7307 19.656 18.688 20.68C18.688 21.6613 18.6453 22.6213 18.56 23.56C17.8773 23.7733 17.1947 24.0507 16.512 24.392C15.8293 24.7333 15.4027 25.3093 15.232 26.12C15.0613 27.3573 15.0187 28.6373 15.104 29.96C15.1893 31.2827 15.1893 32.5413 15.104 33.736C15.0613 34.9307 14.8053 36.0187 14.336 37C13.8667 37.9387 12.992 38.6427 11.712 39.112C13.12 39.88 14.0587 41.0107 14.528 42.504C14.9973 43.9547 15.1893 45.576 15.104 47.368C15.0613 48.0933 15.0613 48.8613 15.104 49.672C15.1467 50.44 15.2747 51.1653 15.488 51.848C15.744 52.488 16.128 53.064 16.64 53.576C17.152 54.0453 17.856 54.3227 18.752 54.408C18.752 55.3893 18.752 56.4773 18.752 57.672ZM77.961 60.744C76.6383 61.0853 75.081 61.1493 73.289 60.936C73.2037 59.9547 73.161 58.8667 73.161 57.672C73.2037 56.4773 73.225 55.3893 73.225 54.408C74.121 54.3227 74.825 54.0453 75.337 53.576C75.849 53.064 76.2117 52.488 76.425 51.848C76.681 51.1653 76.8303 50.44 76.873 49.672C76.9157 48.8613 76.9157 48.0933 76.873 47.368C76.7877 45.576 76.9797 43.9547 77.449 42.504C77.9183 41.0107 78.857 39.88 80.265 39.112C78.985 38.6427 78.1103 37.9387 77.641 37C77.1717 36.0187 76.8943 34.9307 76.809 33.736C76.7663 32.5413 76.7877 31.2827 76.873 29.96C76.9583 28.6373 76.9157 27.3573 76.745 26.12C76.5743 25.3093 76.1477 24.7333 75.465 24.392C74.7823 24.0507 74.0997 23.7733 73.417 23.56C73.3317 22.6213 73.2677 21.6613 73.225 20.68C73.225 19.656 73.3103 18.632 73.481 17.608C74.505 17.5227 75.4863 17.5013 76.425 17.544C77.3637 17.544 78.4517 17.608 79.689 17.736C80.4997 17.864 81.2037 18.1627 81.801 18.632C82.3983 19.0587 82.889 19.6133 83.273 20.296C83.657 20.936 83.8917 21.6827 83.977 22.536C84.105 23.3467 84.0837 24.1787 83.913 25.032C83.785 26.3547 83.7637 27.6987 83.849 29.064C83.9343 30.3867 84.233 31.5813 84.745 32.648C85.257 33.7147 86.0037 34.568 86.985 35.208C88.009 35.8053 89.353 36.0187 91.017 35.848C91.1877 36.8293 91.2943 37.8747 91.337 38.984C91.4223 40.0507 91.3583 41.096 91.145 42.12C91.0597 42.1627 90.889 42.184 90.633 42.184C88.969 42.0987 87.6463 42.4613 86.665 43.272C85.7263 44.04 85.0223 45.0427 84.553 46.28C84.1263 47.4747 83.8917 48.776 83.849 50.184C83.849 51.592 83.9343 52.8933 84.105 54.088C84.1477 55.0693 83.9343 56.008 83.465 56.904C82.9957 57.8 82.2917 58.5893 81.353 59.272C80.457 59.912 79.3263 60.4027 77.961 60.744Z" fill="#F35034"/>
<path d="M42.6725 27.664V44.208C42.6725 45.1467 42.5125 46 42.1925 46.768C41.8725 47.536 41.4138 48.1867 40.8165 48.72C40.2405 49.2533 39.5472 49.6693 38.7365 49.968C37.9258 50.2453 37.0405 50.384 36.0805 50.384C34.3738 50.384 32.9658 49.9467 31.8565 49.072C30.7472 48.176 30.0218 46.928 29.6805 45.328L32.2405 44.784C32.3472 45.232 32.4858 45.6587 32.6565 46.064C32.8485 46.448 33.0938 46.7893 33.3925 47.088C33.7125 47.3653 34.0965 47.5893 34.5445 47.76C34.9925 47.9307 35.5258 48.016 36.1445 48.016C37.3605 48.016 38.2992 47.6747 38.9605 46.992C39.6432 46.288 39.9845 45.2 39.9845 43.728V30H31.9205V27.664H42.6725ZM51.716 31.088H51.492V50H49.06V27.664H52.868L60.484 46.384H60.708V27.664H63.14V50H59.332L51.716 31.088Z" fill="#F35034"/>
</svg>
