<svg width="245" height="92" viewBox="0 0 245 92" fill="none" xmlns="http://www.w3.org/2000/svg">
<path d="M94.752 57.672C94.7947 58.8667 94.7733 59.9547 94.688 60.936C92.896 61.1493 91.3173 61.0853 89.952 60.744C88.6293 60.4027 87.4987 59.912 86.56 59.272C85.664 58.5893 84.9813 57.8 84.512 56.904C84.0427 56.008 83.8293 55.0693 83.872 54.088C84.0427 52.8933 84.1067 51.592 84.064 50.184C84.064 48.776 83.8293 47.4747 83.36 46.28C82.9333 45.0427 82.2293 44.04 81.248 43.272C80.3093 42.4613 79.008 42.0987 77.344 42.184C77.088 42.184 76.9173 42.1627 76.832 42.12C76.6187 41.096 76.5333 40.0507 76.576 38.984C76.6613 37.8747 76.7893 36.8293 76.96 35.848C78.624 36.0187 79.9467 35.8053 80.928 35.208C81.952 34.568 82.72 33.7147 83.232 32.648C83.744 31.5813 84.0427 30.3867 84.128 29.064C84.2133 27.6987 84.192 26.3547 84.064 25.032C83.8933 24.1787 83.8507 23.3467 83.936 22.536C84.064 21.6827 84.32 20.936 84.704 20.296C85.088 19.6133 85.5787 19.0587 86.176 18.632C86.7733 18.1627 87.4773 17.864 88.288 17.736C89.5253 17.608 90.6133 17.544 91.552 17.544C92.4907 17.5013 93.472 17.5227 94.496 17.608C94.6667 18.632 94.7307 19.656 94.688 20.68C94.688 21.6613 94.6453 22.6213 94.56 23.56C93.8773 23.7733 93.1947 24.0507 92.512 24.392C91.8293 24.7333 91.4027 25.3093 91.232 26.12C91.0613 27.3573 91.0187 28.6373 91.104 29.96C91.1893 31.2827 91.1893 32.5413 91.104 33.736C91.0613 34.9307 90.8053 36.0187 90.336 37C89.8667 37.9387 88.992 38.6427 87.712 39.112C89.12 39.88 90.0587 41.0107 90.528 42.504C90.9973 43.9547 91.1893 45.576 91.104 47.368C91.0613 48.0933 91.0613 48.8613 91.104 49.672C91.1467 50.44 91.2747 51.1653 91.488 51.848C91.744 52.488 92.128 53.064 92.64 53.576C93.152 54.0453 93.856 54.3227 94.752 54.408C94.752 55.3893 94.752 56.4773 94.752 57.672ZM153.961 60.744C152.638 61.0853 151.081 61.1493 149.289 60.936C149.204 59.9547 149.161 58.8667 149.161 57.672C149.204 56.4773 149.225 55.3893 149.225 54.408C150.121 54.3227 150.825 54.0453 151.337 53.576C151.849 53.064 152.212 52.488 152.425 51.848C152.681 51.1653 152.83 50.44 152.873 49.672C152.916 48.8613 152.916 48.0933 152.873 47.368C152.788 45.576 152.98 43.9547 153.449 42.504C153.918 41.0107 154.857 39.88 156.265 39.112C154.985 38.6427 154.11 37.9387 153.641 37C153.172 36.0187 152.894 34.9307 152.809 33.736C152.766 32.5413 152.788 31.2827 152.873 29.96C152.958 28.6373 152.916 27.3573 152.745 26.12C152.574 25.3093 152.148 24.7333 151.465 24.392C150.782 24.0507 150.1 23.7733 149.417 23.56C149.332 22.6213 149.268 21.6613 149.225 20.68C149.225 19.656 149.31 18.632 149.481 17.608C150.505 17.5227 151.486 17.5013 152.425 17.544C153.364 17.544 154.452 17.608 155.689 17.736C156.5 17.864 157.204 18.1627 157.801 18.632C158.398 19.0587 158.889 19.6133 159.273 20.296C159.657 20.936 159.892 21.6827 159.977 22.536C160.105 23.3467 160.084 24.1787 159.913 25.032C159.785 26.3547 159.764 27.6987 159.849 29.064C159.934 30.3867 160.233 31.5813 160.745 32.648C161.257 33.7147 162.004 34.568 162.985 35.208C164.009 35.8053 165.353 36.0187 167.017 35.848C167.188 36.8293 167.294 37.8747 167.337 38.984C167.422 40.0507 167.358 41.096 167.145 42.12C167.06 42.1627 166.889 42.184 166.633 42.184C164.969 42.0987 163.646 42.4613 162.665 43.272C161.726 44.04 161.022 45.0427 160.553 46.28C160.126 47.4747 159.892 48.776 159.849 50.184C159.849 51.592 159.934 52.8933 160.105 54.088C160.148 55.0693 159.934 56.008 159.465 56.904C158.996 57.8 158.292 58.5893 157.353 59.272C156.457 59.912 155.326 60.4027 153.961 60.744Z" fill="#F35034"/>
<path d="M118.673 27.664V44.208C118.673 45.1467 118.513 46 118.193 46.768C117.873 47.536 117.414 48.1867 116.817 48.72C116.241 49.2533 115.547 49.6693 114.737 49.968C113.926 50.2453 113.041 50.384 112.081 50.384C110.374 50.384 108.966 49.9467 107.857 49.072C106.747 48.176 106.022 46.928 105.681 45.328L108.241 44.784C108.347 45.232 108.486 45.6587 108.657 46.064C108.849 46.448 109.094 46.7893 109.393 47.088C109.713 47.3653 110.097 47.5893 110.545 47.76C110.993 47.9307 111.526 48.016 112.145 48.016C113.361 48.016 114.299 47.6747 114.961 46.992C115.643 46.288 115.985 45.2 115.985 43.728V30H107.921V27.664H118.673ZM127.716 31.088H127.492V50H125.06V27.664H128.868L136.484 46.384H136.708V27.664H139.14V50H135.332L127.716 31.088Z" fill="#F35034"/>
<path d="M2.28 69.248H6.96C9.008 69.248 10.536 69.952 11.544 71.36C12.552 72.768 13.056 74.856 13.056 77.624C13.056 80.392 12.552 82.48 11.544 83.888C10.536 85.296 9.008 86 6.96 86H2.28V69.248ZM6.864 84.248C8.208 84.248 9.216 83.784 9.888 82.856C10.576 81.928 10.92 80.616 10.92 78.92V76.328C10.92 74.632 10.576 73.32 9.888 72.392C9.216 71.464 8.208 71 6.864 71H4.296V84.248H6.864ZM21.8066 86.288C20.9106 86.288 20.1026 86.136 19.3826 85.832C18.6786 85.528 18.0706 85.096 17.5586 84.536C17.0626 83.96 16.6786 83.28 16.4066 82.496C16.1346 81.696 15.9986 80.808 15.9986 79.832C15.9986 78.84 16.1346 77.944 16.4066 77.144C16.6946 76.344 17.0866 75.664 17.5826 75.104C18.0786 74.528 18.6706 74.088 19.3586 73.784C20.0626 73.48 20.8386 73.328 21.6866 73.328C22.5186 73.328 23.2706 73.48 23.9426 73.784C24.6306 74.088 25.2146 74.512 25.6946 75.056C26.1746 75.584 26.5426 76.216 26.7986 76.952C27.0546 77.688 27.1826 78.496 27.1826 79.376V80.288H18.0146V80.864C18.0146 81.408 18.1026 81.912 18.2786 82.376C18.4546 82.84 18.7026 83.24 19.0226 83.576C19.3586 83.912 19.7586 84.176 20.2226 84.368C20.7026 84.544 21.2306 84.632 21.8066 84.632C22.6386 84.632 23.3586 84.44 23.9666 84.056C24.5746 83.672 25.0386 83.144 25.3586 82.472L26.7746 83.432C26.4066 84.264 25.7906 84.952 24.9266 85.496C24.0786 86.024 23.0386 86.288 21.8066 86.288ZM21.6866 74.912C21.1586 74.912 20.6706 75.008 20.2226 75.2C19.7746 75.392 19.3826 75.656 19.0466 75.992C18.7266 76.328 18.4706 76.728 18.2786 77.192C18.1026 77.64 18.0146 78.136 18.0146 78.68V78.848H25.1186V78.584C25.1186 78.04 25.0306 77.544 24.8546 77.096C24.6946 76.648 24.4626 76.264 24.1586 75.944C23.8706 75.608 23.5106 75.352 23.0786 75.176C22.6626 75 22.1986 74.912 21.6866 74.912ZM21.8066 71.96L20.5586 71.384L22.5986 67.304L24.3506 68.144L21.8066 71.96ZM34.7573 86L30.3173 73.616H32.2613L34.0373 78.8L35.9573 84.392H36.0533L37.9733 78.8L39.7493 73.616H41.6453L37.2053 86H34.7573ZM50.5879 86.288C49.6919 86.288 48.8839 86.136 48.1639 85.832C47.4599 85.528 46.8519 85.096 46.3399 84.536C45.8439 83.96 45.4599 83.28 45.1879 82.496C44.9159 81.696 44.7799 80.808 44.7799 79.832C44.7799 78.84 44.9159 77.944 45.1879 77.144C45.4759 76.344 45.8679 75.664 46.3639 75.104C46.8599 74.528 47.4519 74.088 48.1399 73.784C48.8439 73.48 49.6199 73.328 50.4679 73.328C51.2999 73.328 52.0519 73.48 52.7239 73.784C53.4119 74.088 53.9959 74.512 54.4759 75.056C54.9559 75.584 55.3239 76.216 55.5799 76.952C55.8359 77.688 55.9639 78.496 55.9639 79.376V80.288H46.7959V80.864C46.7959 81.408 46.8839 81.912 47.0599 82.376C47.2359 82.84 47.4839 83.24 47.8039 83.576C48.1399 83.912 48.5399 84.176 49.0039 84.368C49.4839 84.544 50.0119 84.632 50.5879 84.632C51.4199 84.632 52.1399 84.44 52.7479 84.056C53.3559 83.672 53.8199 83.144 54.1399 82.472L55.5559 83.432C55.1879 84.264 54.5719 84.952 53.7079 85.496C52.8599 86.024 51.8199 86.288 50.5879 86.288ZM50.4679 74.912C49.9399 74.912 49.4519 75.008 49.0039 75.2C48.5559 75.392 48.1639 75.656 47.8279 75.992C47.5079 76.328 47.2519 76.728 47.0599 77.192C46.8839 77.64 46.7959 78.136 46.7959 78.68V78.848H53.8999V78.584C53.8999 78.04 53.8119 77.544 53.6359 77.096C53.4759 76.648 53.2439 76.264 52.9399 75.944C52.6519 75.608 52.2919 75.352 51.8599 75.176C51.4439 75 50.9799 74.912 50.4679 74.912ZM59.4825 84.368H63.8025V69.872H59.4825V68.24H65.7225V84.368H70.0425V86H59.4825V84.368ZM79.1531 86.288C78.2891 86.288 77.5051 86.136 76.8011 85.832C76.1131 85.528 75.5211 85.096 75.0251 84.536C74.5451 83.96 74.1771 83.28 73.9211 82.496C73.6651 81.696 73.5371 80.8 73.5371 79.808C73.5371 78.832 73.6651 77.944 73.9211 77.144C74.1771 76.344 74.5451 75.664 75.0251 75.104C75.5211 74.528 76.1131 74.088 76.8011 73.784C77.5051 73.48 78.2891 73.328 79.1531 73.328C80.0171 73.328 80.7931 73.48 81.4811 73.784C82.1851 74.088 82.7771 74.528 83.2571 75.104C83.7531 75.664 84.1291 76.344 84.3851 77.144C84.6411 77.944 84.7691 78.832 84.7691 79.808C84.7691 80.8 84.6411 81.696 84.3851 82.496C84.1291 83.28 83.7531 83.96 83.2571 84.536C82.7771 85.096 82.1851 85.528 81.4811 85.832C80.7931 86.136 80.0171 86.288 79.1531 86.288ZM79.1531 84.632C80.2251 84.632 81.0891 84.312 81.7451 83.672C82.4011 83.032 82.7291 82.04 82.7291 80.696V78.92C82.7291 77.576 82.4011 76.584 81.7451 75.944C81.0891 75.304 80.2251 74.984 79.1531 74.984C78.0811 74.984 77.2171 75.304 76.5611 75.944C75.9051 76.584 75.5771 77.576 75.5771 78.92V80.696C75.5771 82.04 75.9051 83.032 76.5611 83.672C77.2171 84.312 78.0811 84.632 79.1531 84.632ZM88.6238 73.616H90.5438V75.632H90.6398C91.4398 74.096 92.7118 73.328 94.4558 73.328C95.9758 73.328 97.1598 73.896 98.0078 75.032C98.8718 76.168 99.3038 77.76 99.3038 79.808C99.3038 81.856 98.8718 83.448 98.0078 84.584C97.1598 85.72 95.9758 86.288 94.4558 86.288C92.7118 86.288 91.4398 85.52 90.6398 83.984H90.5438V90.8H88.6238V73.616ZM93.7118 84.584C94.8318 84.584 95.6958 84.248 96.3038 83.576C96.9278 82.888 97.2398 81.984 97.2398 80.864V78.752C97.2398 77.632 96.9278 76.736 96.3038 76.064C95.6958 75.376 94.8318 75.032 93.7118 75.032C93.2798 75.032 92.8718 75.088 92.4878 75.2C92.1038 75.312 91.7678 75.48 91.4798 75.704C91.1918 75.912 90.9598 76.176 90.7838 76.496C90.6238 76.8 90.5438 77.16 90.5438 77.576V82.04C90.5438 82.456 90.6238 82.824 90.7838 83.144C90.9598 83.448 91.1918 83.712 91.4798 83.936C91.7678 84.144 92.1038 84.304 92.4878 84.416C92.8718 84.528 93.2798 84.584 93.7118 84.584ZM103.014 73.616H104.934V75.632H105.03C105.83 74.096 107.102 73.328 108.846 73.328C110.366 73.328 111.55 73.896 112.398 75.032C113.262 76.168 113.694 77.76 113.694 79.808C113.694 81.856 113.262 83.448 112.398 84.584C111.55 85.72 110.366 86.288 108.846 86.288C107.102 86.288 105.83 85.52 105.03 83.984H104.934V90.8H103.014V73.616ZM108.102 84.584C109.222 84.584 110.086 84.248 110.694 83.576C111.318 82.888 111.63 81.984 111.63 80.864V78.752C111.63 77.632 111.318 76.736 110.694 76.064C110.086 75.376 109.222 75.032 108.102 75.032C107.67 75.032 107.262 75.088 106.878 75.2C106.494 75.312 106.158 75.48 105.87 75.704C105.582 75.912 105.35 76.176 105.174 76.496C105.014 76.8 104.934 77.16 104.934 77.576V82.04C104.934 82.456 105.014 82.824 105.174 83.144C105.35 83.448 105.582 83.712 105.87 83.936C106.158 84.144 106.494 84.304 106.878 84.416C107.262 84.528 107.67 84.584 108.102 84.584ZM122.541 86.288C121.645 86.288 120.837 86.136 120.117 85.832C119.413 85.528 118.805 85.096 118.293 84.536C117.797 83.96 117.413 83.28 117.141 82.496C116.869 81.696 116.733 80.808 116.733 79.832C116.733 78.84 116.869 77.944 117.141 77.144C117.429 76.344 117.821 75.664 118.317 75.104C118.813 74.528 119.405 74.088 120.093 73.784C120.797 73.48 121.573 73.328 122.421 73.328C123.253 73.328 124.005 73.48 124.677 73.784C125.365 74.088 125.949 74.512 126.429 75.056C126.909 75.584 127.277 76.216 127.533 76.952C127.789 77.688 127.917 78.496 127.917 79.376V80.288H118.749V80.864C118.749 81.408 118.837 81.912 119.013 82.376C119.189 82.84 119.437 83.24 119.757 83.576C120.093 83.912 120.493 84.176 120.957 84.368C121.437 84.544 121.965 84.632 122.541 84.632C123.373 84.632 124.093 84.44 124.701 84.056C125.309 83.672 125.773 83.144 126.093 82.472L127.509 83.432C127.141 84.264 126.525 84.952 125.661 85.496C124.813 86.024 123.773 86.288 122.541 86.288ZM122.421 74.912C121.893 74.912 121.405 75.008 120.957 75.2C120.509 75.392 120.117 75.656 119.781 75.992C119.461 76.328 119.205 76.728 119.013 77.192C118.837 77.64 118.749 78.136 118.749 78.68V78.848H125.853V78.584C125.853 78.04 125.765 77.544 125.589 77.096C125.429 76.648 125.197 76.264 124.893 75.944C124.605 75.608 124.245 75.352 123.813 75.176C123.397 75 122.933 74.912 122.421 74.912ZM130.812 86V73.616H132.588V75.056H132.684C132.876 74.576 133.148 74.168 133.5 73.832C133.852 73.496 134.372 73.328 135.06 73.328C135.78 73.328 136.316 73.512 136.668 73.88C137.02 74.232 137.236 74.696 137.316 75.272H137.388C137.612 74.712 137.932 74.248 138.348 73.88C138.764 73.512 139.34 73.328 140.076 73.328C141.084 73.328 141.756 73.68 142.092 74.384C142.444 75.088 142.62 76.096 142.62 77.408V86H140.844V77.72C140.844 76.664 140.732 75.936 140.508 75.536C140.3 75.12 139.908 74.912 139.332 74.912C138.82 74.912 138.404 75.08 138.084 75.416C137.764 75.736 137.604 76.232 137.604 76.904V86H135.828V77.72C135.828 76.664 135.716 75.936 135.492 75.536C135.284 75.12 134.9 74.912 134.34 74.912C133.828 74.912 133.404 75.08 133.068 75.416C132.748 75.736 132.588 76.232 132.588 76.904V86H130.812ZM151.322 86.288C150.426 86.288 149.618 86.136 148.898 85.832C148.194 85.528 147.586 85.096 147.074 84.536C146.578 83.96 146.194 83.28 145.922 82.496C145.65 81.696 145.514 80.808 145.514 79.832C145.514 78.84 145.65 77.944 145.922 77.144C146.21 76.344 146.602 75.664 147.098 75.104C147.594 74.528 148.186 74.088 148.874 73.784C149.578 73.48 150.354 73.328 151.202 73.328C152.034 73.328 152.786 73.48 153.458 73.784C154.146 74.088 154.73 74.512 155.21 75.056C155.69 75.584 156.058 76.216 156.314 76.952C156.57 77.688 156.698 78.496 156.698 79.376V80.288H147.53V80.864C147.53 81.408 147.618 81.912 147.794 82.376C147.97 82.84 148.218 83.24 148.538 83.576C148.874 83.912 149.274 84.176 149.738 84.368C150.218 84.544 150.746 84.632 151.322 84.632C152.154 84.632 152.874 84.44 153.482 84.056C154.09 83.672 154.554 83.144 154.874 82.472L156.29 83.432C155.922 84.264 155.306 84.952 154.442 85.496C153.594 86.024 152.554 86.288 151.322 86.288ZM151.202 74.912C150.674 74.912 150.186 75.008 149.738 75.2C149.29 75.392 148.898 75.656 148.562 75.992C148.242 76.328 147.986 76.728 147.794 77.192C147.618 77.64 147.53 78.136 147.53 78.68V78.848H154.634V78.584C154.634 78.04 154.546 77.544 154.37 77.096C154.21 76.648 153.978 76.264 153.674 75.944C153.386 75.608 153.026 75.352 152.594 75.176C152.178 75 151.714 74.912 151.202 74.912ZM160.649 86V73.616H162.569V75.632H162.665C162.793 75.328 162.953 75.04 163.145 74.768C163.337 74.48 163.569 74.232 163.841 74.024C164.129 73.816 164.465 73.648 164.849 73.52C165.233 73.392 165.681 73.328 166.193 73.328C167.489 73.328 168.529 73.744 169.313 74.576C170.097 75.392 170.489 76.552 170.489 78.056V86H168.569V78.392C168.569 77.256 168.321 76.416 167.825 75.872C167.329 75.312 166.601 75.032 165.641 75.032C165.257 75.032 164.881 75.08 164.513 75.176C164.145 75.272 163.817 75.416 163.529 75.608C163.241 75.8 163.009 76.048 162.833 76.352C162.657 76.656 162.569 77.008 162.569 77.408V86H160.649ZM180.488 86C179.544 86 178.848 85.736 178.4 85.208C177.968 84.68 177.752 84 177.752 83.168V75.248H173.624V73.616H176.696C177.112 73.616 177.4 73.536 177.56 73.376C177.736 73.2 177.824 72.904 177.824 72.488V69.248H179.672V73.616H185.312V75.248H179.672V84.368H185.312V86H180.488ZM203.629 86L202.309 69.248H204.109L204.805 78.848L205.165 83.912H205.357L207.565 73.616H209.821L212.029 83.912H212.221L212.581 78.848L213.277 69.248H215.029L213.709 86H210.805L208.765 75.992H208.573L206.533 86H203.629ZM223.275 86.288C222.379 86.288 221.571 86.136 220.851 85.832C220.147 85.528 219.539 85.096 219.027 84.536C218.531 83.96 218.147 83.28 217.875 82.496C217.603 81.696 217.467 80.808 217.467 79.832C217.467 78.84 217.603 77.944 217.875 77.144C218.163 76.344 218.555 75.664 219.051 75.104C219.547 74.528 220.139 74.088 220.827 73.784C221.531 73.48 222.307 73.328 223.155 73.328C223.987 73.328 224.739 73.48 225.411 73.784C226.099 74.088 226.683 74.512 227.163 75.056C227.643 75.584 228.011 76.216 228.267 76.952C228.523 77.688 228.651 78.496 228.651 79.376V80.288H219.483V80.864C219.483 81.408 219.571 81.912 219.747 82.376C219.923 82.84 220.171 83.24 220.491 83.576C220.827 83.912 221.227 84.176 221.691 84.368C222.171 84.544 222.699 84.632 223.275 84.632C224.107 84.632 224.827 84.44 225.435 84.056C226.043 83.672 226.507 83.144 226.827 82.472L228.243 83.432C227.875 84.264 227.259 84.952 226.395 85.496C225.547 86.024 224.507 86.288 223.275 86.288ZM223.155 74.912C222.627 74.912 222.139 75.008 221.691 75.2C221.243 75.392 220.851 75.656 220.515 75.992C220.195 76.328 219.939 76.728 219.747 77.192C219.571 77.64 219.483 78.136 219.483 78.68V78.848H226.587V78.584C226.587 78.04 226.499 77.544 226.323 77.096C226.163 76.648 225.931 76.264 225.627 75.944C225.339 75.608 224.979 75.352 224.547 75.176C224.131 75 223.667 74.912 223.155 74.912ZM232.53 68.24H234.45V75.632H234.546C235.346 74.096 236.618 73.328 238.362 73.328C239.882 73.328 241.066 73.896 241.914 75.032C242.778 76.168 243.21 77.76 243.21 79.808C243.21 81.856 242.778 83.448 241.914 84.584C241.066 85.72 239.882 86.288 238.362 86.288C236.618 86.288 235.346 85.52 234.546 83.984H234.45V86H232.53V68.24ZM237.618 84.584C238.738 84.584 239.602 84.248 240.21 83.576C240.834 82.888 241.146 81.984 241.146 80.864V78.752C241.146 77.632 240.834 76.736 240.21 76.064C239.602 75.376 238.738 75.032 237.618 75.032C237.186 75.032 236.778 75.088 236.394 75.2C236.01 75.312 235.674 75.48 235.386 75.704C235.098 75.912 234.866 76.176 234.69 76.496C234.53 76.8 234.45 77.16 234.45 77.576V82.04C234.45 82.456 234.53 82.824 234.69 83.144C234.866 83.448 235.098 83.712 235.386 83.936C235.674 84.144 236.01 84.304 236.394 84.416C236.778 84.528 237.186 84.584 237.618 84.584Z" fill="#F35034"/>
</svg>
