<svg width="54" height="45" viewBox="0 0 54 45" fill="none" xmlns="http://www.w3.org/2000/svg">
<path d="M18.752 40.672C18.7947 41.8667 18.7733 42.9547 18.688 43.936C16.896 44.1493 15.3173 44.0853 13.952 43.744C12.6293 43.4027 11.4987 42.912 10.56 42.272C9.664 41.5893 8.98133 40.8 8.512 39.904C8.04267 39.008 7.82933 38.0693 7.872 37.088C8.04267 35.8933 8.10667 34.592 8.064 33.184C8.064 31.776 7.82933 30.4747 7.36 29.28C6.93333 28.0427 6.22933 27.04 5.248 26.272C4.30933 25.4613 3.008 25.0987 1.344 25.184C1.088 25.184 0.917333 25.1627 0.832 25.12C0.618667 24.096 0.533333 23.0507 0.576 21.984C0.661333 20.8747 0.789333 19.8293 0.96 18.848C2.624 19.0187 3.94667 18.8053 4.928 18.208C5.952 17.568 6.72 16.7147 7.232 15.648C7.744 14.5813 8.04267 13.3867 8.128 12.064C8.21333 10.6987 8.192 9.35467 8.064 8.032C7.89333 7.17867 7.85067 6.34667 7.936 5.536C8.064 4.68266 8.32 3.936 8.704 3.296C9.088 2.61333 9.57867 2.05866 10.176 1.632C10.7733 1.16266 11.4773 0.863997 12.288 0.735996C13.5253 0.607998 14.6133 0.543999 15.552 0.543999C16.4907 0.501333 17.472 0.522666 18.496 0.607998C18.6667 1.632 18.7307 2.656 18.688 3.68C18.688 4.66133 18.6453 5.62133 18.56 6.56C17.8773 6.77333 17.1947 7.05066 16.512 7.392C15.8293 7.73333 15.4027 8.30933 15.232 9.12C15.0613 10.3573 15.0187 11.6373 15.104 12.96C15.1893 14.2827 15.1893 15.5413 15.104 16.736C15.0613 17.9307 14.8053 19.0187 14.336 20C13.8667 20.9387 12.992 21.6427 11.712 22.112C13.12 22.88 14.0587 24.0107 14.528 25.504C14.9973 26.9547 15.1893 28.576 15.104 30.368C15.0613 31.0933 15.0613 31.8613 15.104 32.672C15.1467 33.44 15.2747 34.1653 15.488 34.848C15.744 35.488 16.128 36.064 16.64 36.576C17.152 37.0453 17.856 37.3227 18.752 37.408C18.752 38.3893 18.752 39.4773 18.752 40.672ZM39.5235 43.744C38.2008 44.0853 36.6435 44.1493 34.8515 43.936C34.7662 42.9547 34.7235 41.8667 34.7235 40.672C34.7662 39.4773 34.7875 38.3893 34.7875 37.408C35.6835 37.3227 36.3875 37.0453 36.8995 36.576C37.4115 36.064 37.7742 35.488 37.9875 34.848C38.2435 34.1653 38.3928 33.44 38.4355 32.672C38.4782 31.8613 38.4782 31.0933 38.4355 30.368C38.3502 28.576 38.5422 26.9547 39.0115 25.504C39.4808 24.0107 40.4195 22.88 41.8275 22.112C40.5475 21.6427 39.6728 20.9387 39.2035 20C38.7342 19.0187 38.4568 17.9307 38.3715 16.736C38.3288 15.5413 38.3502 14.2827 38.4355 12.96C38.5208 11.6373 38.4782 10.3573 38.3075 9.12C38.1368 8.30933 37.7102 7.73333 37.0275 7.392C36.3448 7.05066 35.6622 6.77333 34.9795 6.56C34.8942 5.62133 34.8302 4.66133 34.7875 3.68C34.7875 2.656 34.8728 1.632 35.0435 0.607998C36.0675 0.522666 37.0488 0.501333 37.9875 0.543999C38.9262 0.543999 40.0142 0.607998 41.2515 0.735996C42.0622 0.863997 42.7662 1.16266 43.3635 1.632C43.9608 2.05866 44.4515 2.61333 44.8355 3.296C45.2195 3.936 45.4542 4.68266 45.5395 5.536C45.6675 6.34667 45.6462 7.17867 45.4755 8.032C45.3475 9.35467 45.3262 10.6987 45.4115 12.064C45.4968 13.3867 45.7955 14.5813 46.3075 15.648C46.8195 16.7147 47.5662 17.568 48.5475 18.208C49.5715 18.8053 50.9155 19.0187 52.5795 18.848C52.7502 19.8293 52.8568 20.8747 52.8995 21.984C52.9848 23.0507 52.9208 24.096 52.7075 25.12C52.6222 25.1627 52.4515 25.184 52.1955 25.184C50.5315 25.0987 49.2088 25.4613 48.2275 26.272C47.2888 27.04 46.5848 28.0427 46.1155 29.28C45.6888 30.4747 45.4542 31.776 45.4115 33.184C45.4115 34.592 45.4968 35.8933 45.6675 37.088C45.7102 38.0693 45.4968 39.008 45.0275 39.904C44.5582 40.8 43.8542 41.5893 42.9155 42.272C42.0195 42.912 40.8888 43.4027 39.5235 43.744Z" fill="#F35034"/>
</svg>
