<svg width="351" height="76" viewBox="0 0 351 76" fill="none" xmlns="http://www.w3.org/2000/svg">
<path d="M18.752 57.672C18.7947 58.8667 18.7733 59.9547 18.688 60.936C16.896 61.1493 15.3173 61.0853 13.952 60.744C12.6293 60.4027 11.4987 59.912 10.56 59.272C9.664 58.5893 8.98133 57.8 8.512 56.904C8.04267 56.008 7.82933 55.0693 7.872 54.088C8.04267 52.8933 8.10667 51.592 8.064 50.184C8.064 48.776 7.82933 47.4747 7.36 46.28C6.93333 45.0427 6.22933 44.04 5.248 43.272C4.30933 42.4613 3.008 42.0987 1.344 42.184C1.088 42.184 0.917333 42.1627 0.832 42.12C0.618667 41.096 0.533333 40.0507 0.576 38.984C0.661333 37.8747 0.789333 36.8293 0.96 35.848C2.624 36.0187 3.94667 35.8053 4.928 35.208C5.952 34.568 6.72 33.7147 7.232 32.648C7.744 31.5813 8.04267 30.3867 8.128 29.064C8.21333 27.6987 8.192 26.3547 8.064 25.032C7.89333 24.1787 7.85067 23.3467 7.936 22.536C8.064 21.6827 8.32 20.936 8.704 20.296C9.088 19.6133 9.57867 19.0587 10.176 18.632C10.7733 18.1627 11.4773 17.864 12.288 17.736C13.5253 17.608 14.6133 17.544 15.552 17.544C16.4907 17.5013 17.472 17.5227 18.496 17.608C18.6667 18.632 18.7307 19.656 18.688 20.68C18.688 21.6613 18.6453 22.6213 18.56 23.56C17.8773 23.7733 17.1947 24.0507 16.512 24.392C15.8293 24.7333 15.4027 25.3093 15.232 26.12C15.0613 27.3573 15.0187 28.6373 15.104 29.96C15.1893 31.2827 15.1893 32.5413 15.104 33.736C15.0613 34.9307 14.8053 36.0187 14.336 37C13.8667 37.9387 12.992 38.6427 11.712 39.112C13.12 39.88 14.0587 41.0107 14.528 42.504C14.9973 43.9547 15.1893 45.576 15.104 47.368C15.0613 48.0933 15.0613 48.8613 15.104 49.672C15.1467 50.44 15.2747 51.1653 15.488 51.848C15.744 52.488 16.128 53.064 16.64 53.576C17.152 54.0453 17.856 54.3227 18.752 54.408C18.752 55.3893 18.752 56.4773 18.752 57.672ZM77.961 60.744C76.6383 61.0853 75.081 61.1493 73.289 60.936C73.2037 59.9547 73.161 58.8667 73.161 57.672C73.2037 56.4773 73.225 55.3893 73.225 54.408C74.121 54.3227 74.825 54.0453 75.337 53.576C75.849 53.064 76.2117 52.488 76.425 51.848C76.681 51.1653 76.8303 50.44 76.873 49.672C76.9157 48.8613 76.9157 48.0933 76.873 47.368C76.7877 45.576 76.9797 43.9547 77.449 42.504C77.9183 41.0107 78.857 39.88 80.265 39.112C78.985 38.6427 78.1103 37.9387 77.641 37C77.1717 36.0187 76.8943 34.9307 76.809 33.736C76.7663 32.5413 76.7877 31.2827 76.873 29.96C76.9583 28.6373 76.9157 27.3573 76.745 26.12C76.5743 25.3093 76.1477 24.7333 75.465 24.392C74.7823 24.0507 74.0997 23.7733 73.417 23.56C73.3317 22.6213 73.2677 21.6613 73.225 20.68C73.225 19.656 73.3103 18.632 73.481 17.608C74.505 17.5227 75.4863 17.5013 76.425 17.544C77.3637 17.544 78.4517 17.608 79.689 17.736C80.4997 17.864 81.2037 18.1627 81.801 18.632C82.3983 19.0587 82.889 19.6133 83.273 20.296C83.657 20.936 83.8917 21.6827 83.977 22.536C84.105 23.3467 84.0837 24.1787 83.913 25.032C83.785 26.3547 83.7637 27.6987 83.849 29.064C83.9343 30.3867 84.233 31.5813 84.745 32.648C85.257 33.7147 86.0037 34.568 86.985 35.208C88.009 35.8053 89.353 36.0187 91.017 35.848C91.1877 36.8293 91.2943 37.8747 91.337 38.984C91.4223 40.0507 91.3583 41.096 91.145 42.12C91.0597 42.1627 90.889 42.184 90.633 42.184C88.969 42.0987 87.6463 42.4613 86.665 43.272C85.7263 44.04 85.0223 45.0427 84.553 46.28C84.1263 47.4747 83.8917 48.776 83.849 50.184C83.849 51.592 83.9343 52.8933 84.105 54.088C84.1477 55.0693 83.9343 56.008 83.465 56.904C82.9957 57.8 82.2917 58.5893 81.353 59.272C80.457 59.912 79.3263 60.4027 77.961 60.744Z" fill="#F35034"/>
<path d="M42.6725 27.664V44.208C42.6725 45.1467 42.5125 46 42.1925 46.768C41.8725 47.536 41.4138 48.1867 40.8165 48.72C40.2405 49.2533 39.5472 49.6693 38.7365 49.968C37.9258 50.2453 37.0405 50.384 36.0805 50.384C34.3738 50.384 32.9658 49.9467 31.8565 49.072C30.7472 48.176 30.0218 46.928 29.6805 45.328L32.2405 44.784C32.3472 45.232 32.4858 45.6587 32.6565 46.064C32.8485 46.448 33.0938 46.7893 33.3925 47.088C33.7125 47.3653 34.0965 47.5893 34.5445 47.76C34.9925 47.9307 35.5258 48.016 36.1445 48.016C37.3605 48.016 38.2992 47.6747 38.9605 46.992C39.6432 46.288 39.9845 45.2 39.9845 43.728V30H31.9205V27.664H42.6725ZM51.716 31.088H51.492V50H49.06V27.664H52.868L60.484 46.384H60.708V27.664H63.14V50H59.332L51.716 31.088Z" fill="#F35034"/>
<path d="M108.28 30.248H112.96C115.008 30.248 116.536 30.952 117.544 32.36C118.552 33.768 119.056 35.856 119.056 38.624C119.056 41.392 118.552 43.48 117.544 44.888C116.536 46.296 115.008 47 112.96 47H108.28V30.248ZM112.864 45.248C114.208 45.248 115.216 44.784 115.888 43.856C116.576 42.928 116.92 41.616 116.92 39.92V37.328C116.92 35.632 116.576 34.32 115.888 33.392C115.216 32.464 114.208 32 112.864 32H110.296V45.248H112.864ZM127.807 47.288C126.911 47.288 126.103 47.136 125.383 46.832C124.679 46.528 124.071 46.096 123.559 45.536C123.063 44.96 122.679 44.28 122.407 43.496C122.135 42.696 121.999 41.808 121.999 40.832C121.999 39.84 122.135 38.944 122.407 38.144C122.695 37.344 123.087 36.664 123.583 36.104C124.079 35.528 124.671 35.088 125.359 34.784C126.063 34.48 126.839 34.328 127.687 34.328C128.519 34.328 129.271 34.48 129.943 34.784C130.631 35.088 131.215 35.512 131.695 36.056C132.175 36.584 132.543 37.216 132.799 37.952C133.055 38.688 133.183 39.496 133.183 40.376V41.288H124.015V41.864C124.015 42.408 124.103 42.912 124.279 43.376C124.455 43.84 124.703 44.24 125.023 44.576C125.359 44.912 125.759 45.176 126.223 45.368C126.703 45.544 127.231 45.632 127.807 45.632C128.639 45.632 129.359 45.44 129.967 45.056C130.575 44.672 131.039 44.144 131.359 43.472L132.775 44.432C132.407 45.264 131.791 45.952 130.927 46.496C130.079 47.024 129.039 47.288 127.807 47.288ZM127.687 35.912C127.159 35.912 126.671 36.008 126.223 36.2C125.775 36.392 125.383 36.656 125.047 36.992C124.727 37.328 124.471 37.728 124.279 38.192C124.103 38.64 124.015 39.136 124.015 39.68V39.848H131.119V39.584C131.119 39.04 131.031 38.544 130.855 38.096C130.695 37.648 130.463 37.264 130.159 36.944C129.871 36.608 129.511 36.352 129.079 36.176C128.663 36 128.199 35.912 127.687 35.912ZM127.807 32.96L126.559 32.384L128.599 28.304L130.351 29.144L127.807 32.96ZM140.757 47L136.317 34.616H138.261L140.037 39.8L141.957 45.392H142.053L143.973 39.8L145.749 34.616H147.645L143.205 47H140.757ZM156.588 47.288C155.692 47.288 154.884 47.136 154.164 46.832C153.46 46.528 152.852 46.096 152.34 45.536C151.844 44.96 151.46 44.28 151.188 43.496C150.916 42.696 150.78 41.808 150.78 40.832C150.78 39.84 150.916 38.944 151.188 38.144C151.476 37.344 151.868 36.664 152.364 36.104C152.86 35.528 153.452 35.088 154.14 34.784C154.844 34.48 155.62 34.328 156.468 34.328C157.3 34.328 158.052 34.48 158.724 34.784C159.412 35.088 159.996 35.512 160.476 36.056C160.956 36.584 161.324 37.216 161.58 37.952C161.836 38.688 161.964 39.496 161.964 40.376V41.288H152.796V41.864C152.796 42.408 152.884 42.912 153.06 43.376C153.236 43.84 153.484 44.24 153.804 44.576C154.14 44.912 154.54 45.176 155.004 45.368C155.484 45.544 156.012 45.632 156.588 45.632C157.42 45.632 158.14 45.44 158.748 45.056C159.356 44.672 159.82 44.144 160.14 43.472L161.556 44.432C161.188 45.264 160.572 45.952 159.708 46.496C158.86 47.024 157.82 47.288 156.588 47.288ZM156.468 35.912C155.94 35.912 155.452 36.008 155.004 36.2C154.556 36.392 154.164 36.656 153.828 36.992C153.508 37.328 153.252 37.728 153.06 38.192C152.884 38.64 152.796 39.136 152.796 39.68V39.848H159.9V39.584C159.9 39.04 159.812 38.544 159.636 38.096C159.476 37.648 159.244 37.264 158.94 36.944C158.652 36.608 158.292 36.352 157.86 36.176C157.444 36 156.98 35.912 156.468 35.912ZM165.483 45.368H169.803V30.872H165.483V29.24H171.723V45.368H176.043V47H165.483V45.368ZM185.153 47.288C184.289 47.288 183.505 47.136 182.801 46.832C182.113 46.528 181.521 46.096 181.025 45.536C180.545 44.96 180.177 44.28 179.921 43.496C179.665 42.696 179.537 41.8 179.537 40.808C179.537 39.832 179.665 38.944 179.921 38.144C180.177 37.344 180.545 36.664 181.025 36.104C181.521 35.528 182.113 35.088 182.801 34.784C183.505 34.48 184.289 34.328 185.153 34.328C186.017 34.328 186.793 34.48 187.481 34.784C188.185 35.088 188.777 35.528 189.257 36.104C189.753 36.664 190.129 37.344 190.385 38.144C190.641 38.944 190.769 39.832 190.769 40.808C190.769 41.8 190.641 42.696 190.385 43.496C190.129 44.28 189.753 44.96 189.257 45.536C188.777 46.096 188.185 46.528 187.481 46.832C186.793 47.136 186.017 47.288 185.153 47.288ZM185.153 45.632C186.225 45.632 187.089 45.312 187.745 44.672C188.401 44.032 188.729 43.04 188.729 41.696V39.92C188.729 38.576 188.401 37.584 187.745 36.944C187.089 36.304 186.225 35.984 185.153 35.984C184.081 35.984 183.217 36.304 182.561 36.944C181.905 37.584 181.577 38.576 181.577 39.92V41.696C181.577 43.04 181.905 44.032 182.561 44.672C183.217 45.312 184.081 45.632 185.153 45.632ZM194.624 34.616H196.544V36.632H196.64C197.44 35.096 198.712 34.328 200.456 34.328C201.976 34.328 203.16 34.896 204.008 36.032C204.872 37.168 205.304 38.76 205.304 40.808C205.304 42.856 204.872 44.448 204.008 45.584C203.16 46.72 201.976 47.288 200.456 47.288C198.712 47.288 197.44 46.52 196.64 44.984H196.544V51.8H194.624V34.616ZM199.712 45.584C200.832 45.584 201.696 45.248 202.304 44.576C202.928 43.888 203.24 42.984 203.24 41.864V39.752C203.24 38.632 202.928 37.736 202.304 37.064C201.696 36.376 200.832 36.032 199.712 36.032C199.28 36.032 198.872 36.088 198.488 36.2C198.104 36.312 197.768 36.48 197.48 36.704C197.192 36.912 196.96 37.176 196.784 37.496C196.624 37.8 196.544 38.16 196.544 38.576V43.04C196.544 43.456 196.624 43.824 196.784 44.144C196.96 44.448 197.192 44.712 197.48 44.936C197.768 45.144 198.104 45.304 198.488 45.416C198.872 45.528 199.28 45.584 199.712 45.584ZM209.014 34.616H210.934V36.632H211.03C211.83 35.096 213.102 34.328 214.846 34.328C216.366 34.328 217.55 34.896 218.398 36.032C219.262 37.168 219.694 38.76 219.694 40.808C219.694 42.856 219.262 44.448 218.398 45.584C217.55 46.72 216.366 47.288 214.846 47.288C213.102 47.288 211.83 46.52 211.03 44.984H210.934V51.8H209.014V34.616ZM214.102 45.584C215.222 45.584 216.086 45.248 216.694 44.576C217.318 43.888 217.63 42.984 217.63 41.864V39.752C217.63 38.632 217.318 37.736 216.694 37.064C216.086 36.376 215.222 36.032 214.102 36.032C213.67 36.032 213.262 36.088 212.878 36.2C212.494 36.312 212.158 36.48 211.87 36.704C211.582 36.912 211.35 37.176 211.174 37.496C211.014 37.8 210.934 38.16 210.934 38.576V43.04C210.934 43.456 211.014 43.824 211.174 44.144C211.35 44.448 211.582 44.712 211.87 44.936C212.158 45.144 212.494 45.304 212.878 45.416C213.262 45.528 213.67 45.584 214.102 45.584ZM228.541 47.288C227.645 47.288 226.837 47.136 226.117 46.832C225.413 46.528 224.805 46.096 224.293 45.536C223.797 44.96 223.413 44.28 223.141 43.496C222.869 42.696 222.733 41.808 222.733 40.832C222.733 39.84 222.869 38.944 223.141 38.144C223.429 37.344 223.821 36.664 224.317 36.104C224.813 35.528 225.405 35.088 226.093 34.784C226.797 34.48 227.573 34.328 228.421 34.328C229.253 34.328 230.005 34.48 230.677 34.784C231.365 35.088 231.949 35.512 232.429 36.056C232.909 36.584 233.277 37.216 233.533 37.952C233.789 38.688 233.917 39.496 233.917 40.376V41.288H224.749V41.864C224.749 42.408 224.837 42.912 225.013 43.376C225.189 43.84 225.437 44.24 225.757 44.576C226.093 44.912 226.493 45.176 226.957 45.368C227.437 45.544 227.965 45.632 228.541 45.632C229.373 45.632 230.093 45.44 230.701 45.056C231.309 44.672 231.773 44.144 232.093 43.472L233.509 44.432C233.141 45.264 232.525 45.952 231.661 46.496C230.813 47.024 229.773 47.288 228.541 47.288ZM228.421 35.912C227.893 35.912 227.405 36.008 226.957 36.2C226.509 36.392 226.117 36.656 225.781 36.992C225.461 37.328 225.205 37.728 225.013 38.192C224.837 38.64 224.749 39.136 224.749 39.68V39.848H231.853V39.584C231.853 39.04 231.765 38.544 231.589 38.096C231.429 37.648 231.197 37.264 230.893 36.944C230.605 36.608 230.245 36.352 229.813 36.176C229.397 36 228.933 35.912 228.421 35.912ZM236.812 47V34.616H238.588V36.056H238.684C238.876 35.576 239.148 35.168 239.5 34.832C239.852 34.496 240.372 34.328 241.06 34.328C241.78 34.328 242.316 34.512 242.668 34.88C243.02 35.232 243.236 35.696 243.316 36.272H243.388C243.612 35.712 243.932 35.248 244.348 34.88C244.764 34.512 245.34 34.328 246.076 34.328C247.084 34.328 247.756 34.68 248.092 35.384C248.444 36.088 248.62 37.096 248.62 38.408V47H246.844V38.72C246.844 37.664 246.732 36.936 246.508 36.536C246.3 36.12 245.908 35.912 245.332 35.912C244.82 35.912 244.404 36.08 244.084 36.416C243.764 36.736 243.604 37.232 243.604 37.904V47H241.828V38.72C241.828 37.664 241.716 36.936 241.492 36.536C241.284 36.12 240.9 35.912 240.34 35.912C239.828 35.912 239.404 36.08 239.068 36.416C238.748 36.736 238.588 37.232 238.588 37.904V47H236.812ZM257.322 47.288C256.426 47.288 255.618 47.136 254.898 46.832C254.194 46.528 253.586 46.096 253.074 45.536C252.578 44.96 252.194 44.28 251.922 43.496C251.65 42.696 251.514 41.808 251.514 40.832C251.514 39.84 251.65 38.944 251.922 38.144C252.21 37.344 252.602 36.664 253.098 36.104C253.594 35.528 254.186 35.088 254.874 34.784C255.578 34.48 256.354 34.328 257.202 34.328C258.034 34.328 258.786 34.48 259.458 34.784C260.146 35.088 260.73 35.512 261.21 36.056C261.69 36.584 262.058 37.216 262.314 37.952C262.57 38.688 262.698 39.496 262.698 40.376V41.288H253.53V41.864C253.53 42.408 253.618 42.912 253.794 43.376C253.97 43.84 254.218 44.24 254.538 44.576C254.874 44.912 255.274 45.176 255.738 45.368C256.218 45.544 256.746 45.632 257.322 45.632C258.154 45.632 258.874 45.44 259.482 45.056C260.09 44.672 260.554 44.144 260.874 43.472L262.29 44.432C261.922 45.264 261.306 45.952 260.442 46.496C259.594 47.024 258.554 47.288 257.322 47.288ZM257.202 35.912C256.674 35.912 256.186 36.008 255.738 36.2C255.29 36.392 254.898 36.656 254.562 36.992C254.242 37.328 253.986 37.728 253.794 38.192C253.618 38.64 253.53 39.136 253.53 39.68V39.848H260.634V39.584C260.634 39.04 260.546 38.544 260.37 38.096C260.21 37.648 259.978 37.264 259.674 36.944C259.386 36.608 259.026 36.352 258.594 36.176C258.178 36 257.714 35.912 257.202 35.912ZM266.649 47V34.616H268.569V36.632H268.665C268.793 36.328 268.953 36.04 269.145 35.768C269.337 35.48 269.569 35.232 269.841 35.024C270.129 34.816 270.465 34.648 270.849 34.52C271.233 34.392 271.681 34.328 272.193 34.328C273.489 34.328 274.529 34.744 275.313 35.576C276.097 36.392 276.489 37.552 276.489 39.056V47H274.569V39.392C274.569 38.256 274.321 37.416 273.825 36.872C273.329 36.312 272.601 36.032 271.641 36.032C271.257 36.032 270.881 36.08 270.513 36.176C270.145 36.272 269.817 36.416 269.529 36.608C269.241 36.8 269.009 37.048 268.833 37.352C268.657 37.656 268.569 38.008 268.569 38.408V47H266.649ZM286.488 47C285.544 47 284.848 46.736 284.4 46.208C283.968 45.68 283.752 45 283.752 44.168V36.248H279.624V34.616H282.696C283.112 34.616 283.4 34.536 283.56 34.376C283.736 34.2 283.824 33.904 283.824 33.488V30.248H285.672V34.616H291.312V36.248H285.672V45.368H291.312V47H286.488ZM309.629 47L308.309 30.248H310.109L310.805 39.848L311.165 44.912H311.357L313.565 34.616H315.821L318.029 44.912H318.221L318.581 39.848L319.277 30.248H321.029L319.709 47H316.805L314.765 36.992H314.573L312.533 47H309.629ZM329.275 47.288C328.379 47.288 327.571 47.136 326.851 46.832C326.147 46.528 325.539 46.096 325.027 45.536C324.531 44.96 324.147 44.28 323.875 43.496C323.603 42.696 323.467 41.808 323.467 40.832C323.467 39.84 323.603 38.944 323.875 38.144C324.163 37.344 324.555 36.664 325.051 36.104C325.547 35.528 326.139 35.088 326.827 34.784C327.531 34.48 328.307 34.328 329.155 34.328C329.987 34.328 330.739 34.48 331.411 34.784C332.099 35.088 332.683 35.512 333.163 36.056C333.643 36.584 334.011 37.216 334.267 37.952C334.523 38.688 334.651 39.496 334.651 40.376V41.288H325.483V41.864C325.483 42.408 325.571 42.912 325.747 43.376C325.923 43.84 326.171 44.24 326.491 44.576C326.827 44.912 327.227 45.176 327.691 45.368C328.171 45.544 328.699 45.632 329.275 45.632C330.107 45.632 330.827 45.44 331.435 45.056C332.043 44.672 332.507 44.144 332.827 43.472L334.243 44.432C333.875 45.264 333.259 45.952 332.395 46.496C331.547 47.024 330.507 47.288 329.275 47.288ZM329.155 35.912C328.627 35.912 328.139 36.008 327.691 36.2C327.243 36.392 326.851 36.656 326.515 36.992C326.195 37.328 325.939 37.728 325.747 38.192C325.571 38.64 325.483 39.136 325.483 39.68V39.848H332.587V39.584C332.587 39.04 332.499 38.544 332.323 38.096C332.163 37.648 331.931 37.264 331.627 36.944C331.339 36.608 330.979 36.352 330.547 36.176C330.131 36 329.667 35.912 329.155 35.912ZM338.53 29.24H340.45V36.632H340.546C341.346 35.096 342.618 34.328 344.362 34.328C345.882 34.328 347.066 34.896 347.914 36.032C348.778 37.168 349.21 38.76 349.21 40.808C349.21 42.856 348.778 44.448 347.914 45.584C347.066 46.72 345.882 47.288 344.362 47.288C342.618 47.288 341.346 46.52 340.546 44.984H340.45V47H338.53V29.24ZM343.618 45.584C344.738 45.584 345.602 45.248 346.21 44.576C346.834 43.888 347.146 42.984 347.146 41.864V39.752C347.146 38.632 346.834 37.736 346.21 37.064C345.602 36.376 344.738 36.032 343.618 36.032C343.186 36.032 342.778 36.088 342.394 36.2C342.01 36.312 341.674 36.48 341.386 36.704C341.098 36.912 340.866 37.176 340.69 37.496C340.53 37.8 340.45 38.16 340.45 38.576V43.04C340.45 43.456 340.53 43.824 340.69 44.144C340.866 44.448 341.098 44.712 341.386 44.936C341.674 45.144 342.01 45.304 342.394 45.416C342.778 45.528 343.186 45.584 343.618 45.584Z" fill="#F35034"/>
</svg>
